<svg width="2025" height="328" viewBox="0 0 2025 328" fill="none" xmlns="http://www.w3.org/2000/svg">
<path d="M275.097 145.871H285.677V177.129H275.097V166.71H259.226V156.29H275.097V145.871Z" fill="#50AAB2"/>
<path d="M153.419 125.032C153.419 131.215 151.558 137.258 148.07 142.398C144.582 147.539 139.625 151.545 133.825 153.911C128.024 156.277 121.642 156.896 115.485 155.69C109.328 154.484 103.672 151.507 99.2325 147.135C94.7933 142.764 91.7702 137.194 90.5454 131.13C89.3206 125.067 89.9492 118.782 92.3517 113.07C94.7542 107.359 98.8226 102.477 104.043 99.0421C109.262 95.6074 115.399 93.7742 121.677 93.7742C130.093 93.7825 138.162 97.0784 144.113 102.939C150.064 108.799 153.411 116.745 153.419 125.032ZM100.516 125.032C100.516 129.154 101.757 133.183 104.082 136.61C106.408 140.037 109.713 142.707 113.579 144.285C117.446 145.862 121.701 146.275 125.806 145.471C129.911 144.666 133.681 142.682 136.641 139.767C139.6 136.853 141.616 133.14 142.432 129.098C143.249 125.055 142.83 120.865 141.228 117.058C139.626 113.25 136.914 109.995 133.434 107.706C129.954 105.416 125.863 104.194 121.677 104.194C116.065 104.194 110.683 106.389 106.714 110.297C102.746 114.205 100.516 119.505 100.516 125.032Z" fill="#50AAB2"/>
<path d="M5.29032 239.645H13.284C13.8449 238.086 14.4895 236.558 15.215 235.066L9.52258 229.471C8.5308 228.494 7.97365 227.169 7.97365 225.787C7.97365 224.406 8.5308 223.081 9.52258 222.104L24.4942 207.361C25.505 206.42 26.8433 205.895 28.2345 205.895C29.6256 205.895 30.9639 206.42 31.9747 207.361L37.6565 212.956C39.1745 212.237 40.7323 211.602 42.3226 211.054V203.177C42.3226 201.796 42.8799 200.471 43.8721 199.494C44.8642 198.517 46.2098 197.968 47.6129 197.968H68.7742C70.1773 197.968 71.5229 198.517 72.515 199.494C73.5072 200.471 74.0645 201.796 74.0645 203.177V211.054C75.6494 211.602 77.2019 212.237 78.7147 212.956L84.3965 207.345C85.3886 206.368 86.734 205.82 88.1368 205.82C89.5396 205.82 90.885 206.368 91.877 207.345L105.806 221.078V180.182C101.454 178.97 97.2624 177.253 93.3213 175.066L88.031 180.276C87.0389 181.252 85.6935 181.801 84.2907 181.801C82.8879 181.801 81.5425 181.252 80.5505 180.276L65.5788 165.532C64.5871 164.555 64.0299 163.23 64.0299 161.849C64.0299 160.468 64.5871 159.143 65.5788 158.166L70.8692 152.956C68.6488 149.075 66.9048 144.948 65.6741 140.661H58.1936C56.7905 140.661 55.4449 140.112 54.4527 139.135C53.4606 138.158 52.9032 136.833 52.9032 135.452V114.613C52.9032 113.231 53.4606 111.906 54.4527 110.929C55.4449 109.952 56.7905 109.403 58.1936 109.403H65.6741C66.9048 105.117 68.6488 100.989 70.8692 97.1084L65.5788 91.8987C64.5871 90.9217 64.0299 89.5969 64.0299 88.2155C64.0299 86.8341 64.5871 85.5092 65.5788 84.5322L80.5505 69.7888C81.5612 68.8476 82.8996 68.3231 84.2907 68.3231C85.6818 68.3231 87.0202 68.8476 88.031 69.7888L93.3213 74.9985C97.2624 72.8119 101.454 71.0946 105.806 69.8826V5.20968C105.806 3.82799 106.364 2.50288 107.356 1.52588C108.348 0.548875 109.694 0 111.097 0H322.71C324.113 0 325.458 0.548875 326.451 1.52588C327.443 2.50288 328 3.82799 328 5.20968V317.79C328 319.172 327.443 320.497 326.451 321.474C325.458 322.451 324.113 323 322.71 323H111.097C109.694 323 108.348 322.451 107.356 321.474C106.364 320.497 105.806 319.172 105.806 317.79V289.471L91.877 303.203C90.8663 304.144 89.5279 304.669 88.1368 304.669C86.7456 304.669 85.4073 304.144 84.3965 303.203L78.7147 297.608C77.2019 298.327 75.6494 298.962 74.0645 299.51V307.371C74.0645 308.753 73.5072 310.078 72.515 311.055C71.5229 312.032 70.1773 312.581 68.7742 312.581H47.6129C46.2098 312.581 44.8642 312.032 43.8721 311.055C42.8799 310.078 42.3226 308.753 42.3226 307.371V299.494C40.7377 298.946 39.1852 298.311 37.6724 297.592L31.9906 303.203C30.9985 304.18 29.6531 304.729 28.2503 304.729C26.8475 304.729 25.5021 304.18 24.5101 303.203L9.53846 288.46C8.54669 287.483 7.98951 286.158 7.98951 284.777C7.98951 283.395 8.54669 282.07 9.53846 281.093L15.215 275.498C14.489 274.001 13.8444 272.468 13.284 270.903H5.29032C3.88724 270.903 2.54163 270.354 1.5495 269.377C0.557358 268.4 0 267.075 0 265.694V244.855C0 243.473 0.557358 242.148 1.5495 241.171C2.54163 240.194 3.88724 239.645 5.29032 239.645ZM101.172 235.066C101.898 236.558 102.542 238.086 103.103 239.645H105.806V230.497L101.172 235.066ZM95.4639 85.918C94.4461 86.5863 93.2247 86.8866 92.0074 86.7679C90.7902 86.6491 89.6523 86.1187 88.7875 85.2668L84.2748 80.8229L76.7837 88.1998L81.2964 92.6437C82.1615 93.4953 82.7002 94.6159 82.8207 95.8146C82.9413 97.0133 82.6363 98.2161 81.9577 99.2183C78.5783 104.199 76.2204 109.783 75.0168 115.655C74.7729 116.832 74.1236 117.889 73.1788 118.649C72.2341 119.408 71.0518 119.823 69.8323 119.823H63.4839V130.242H69.8323C71.0518 130.242 72.2341 130.656 73.1788 131.416C74.1236 132.175 74.7729 133.233 75.0168 134.41C76.2211 140.28 78.5789 145.862 81.9577 150.841C82.6363 151.843 82.9413 153.046 82.8207 154.245C82.7002 155.443 82.1615 156.564 81.2964 157.416L76.7837 161.859L84.2748 169.242L88.7875 164.798C89.6523 163.946 90.7902 163.415 92.0074 163.297C93.2247 163.178 94.4461 163.478 95.4639 164.147C100.522 167.473 106.192 169.793 112.155 170.976C113.351 171.217 114.425 171.857 115.197 172.788C115.968 173.72 116.389 174.885 116.387 176.087V182.339H126.968V176.087C126.966 174.885 127.387 173.72 128.158 172.788C128.93 171.857 130.004 171.217 131.2 170.976C137.161 169.792 142.829 167.472 147.886 164.147C148.903 163.478 150.125 163.178 151.342 163.297C152.559 163.415 153.697 163.946 154.562 164.798L159.075 169.242L166.571 161.865L162.058 157.421C161.193 156.569 160.655 155.449 160.534 154.25C160.414 153.051 160.719 151.848 161.397 150.846C164.777 145.865 167.134 140.282 168.338 134.41C168.582 133.233 169.231 132.175 170.176 131.416C171.121 130.656 172.303 130.242 173.523 130.242H179.871V119.823H173.523C172.303 119.823 171.121 119.408 170.176 118.649C169.231 117.889 168.582 116.832 168.338 115.655C167.134 109.785 164.776 104.203 161.397 99.2235C160.719 98.2213 160.414 97.0185 160.534 95.8198C160.655 94.6211 161.193 93.5005 162.058 92.6489L166.571 88.205L159.08 80.8281L154.567 85.272C153.703 86.1239 152.565 86.6544 151.347 86.7731C150.13 86.8918 148.909 86.5915 147.891 85.9232C142.833 82.5951 137.163 80.2731 131.2 79.0881C130.004 78.8477 128.93 78.2076 128.158 77.2762C127.387 76.3447 126.966 75.1793 126.968 73.9774V67.7258H116.387V73.9774C116.389 75.1793 115.968 76.3447 115.197 77.2762C114.425 78.2076 113.351 78.8477 112.155 79.0881C106.192 80.2716 100.522 82.5917 95.4639 85.918ZM137.548 312.581H296.258V31.2581H137.548V69.8826C141.901 71.0946 146.092 72.8119 150.034 74.9985L155.324 69.7888C156.316 68.8122 157.661 68.2635 159.064 68.2635C160.467 68.2635 161.812 68.8122 162.804 69.7888L177.776 84.5322C178.768 85.5092 179.325 86.8341 179.325 88.2155C179.325 89.5969 178.768 90.9217 177.776 91.8987L172.486 97.1084C174.706 100.989 176.45 105.117 177.681 109.403H185.161C186.564 109.403 187.91 109.952 188.902 110.929C189.894 111.906 190.452 113.231 190.452 114.613V135.452C190.452 136.833 189.894 138.158 188.902 139.135C187.91 140.112 186.564 140.661 185.161 140.661H177.681C176.45 144.948 174.706 149.075 172.486 152.956L177.776 158.166C178.768 159.143 179.325 160.468 179.325 161.849C179.325 163.23 178.768 164.555 177.776 165.532L162.804 180.276C161.794 181.217 160.455 181.741 159.064 181.741C157.673 181.741 156.335 181.217 155.324 180.276L150.034 175.066C146.092 177.253 141.901 178.97 137.548 180.182V312.581ZM317.419 10.4194H116.387V57.3064H126.968V26.0484C126.968 24.6667 127.525 23.3416 128.517 22.3646C129.509 21.3876 130.855 20.8387 132.258 20.8387H301.548C302.951 20.8387 304.297 21.3876 305.289 22.3646C306.281 23.3416 306.839 24.6667 306.839 26.0484V312.581H317.419V10.4194ZM116.387 312.581H126.968V192.758H116.387V312.581ZM105.806 280.051V270.903H103.103C102.542 272.462 101.898 273.991 101.172 275.483L105.806 280.051ZM10.5806 260.484H17.1935C18.3648 260.484 19.503 260.866 20.4298 261.571C21.3565 262.276 22.0194 263.265 22.3146 264.381C23.1679 267.678 24.5007 270.836 26.2717 273.758C26.8829 274.755 27.1373 275.925 26.9944 277.08C26.8515 278.236 26.3196 279.311 25.4835 280.135L20.7592 284.787L28.2503 292.138L32.9746 287.486C33.81 286.661 34.9017 286.137 36.0754 285.995C37.2491 285.853 38.4372 286.103 39.4499 286.704C42.4164 288.45 45.6238 289.765 48.9725 290.606C50.101 290.902 51.0985 291.557 51.8095 292.469C52.5205 293.381 52.9051 294.499 52.9032 295.649V302.161H63.4839V295.649C63.4836 294.496 63.8719 293.375 64.588 292.462C65.3042 291.55 66.3076 290.897 67.441 290.606C70.7898 289.765 73.9972 288.45 76.9636 286.704C77.9764 286.103 79.1645 285.853 80.3382 285.995C81.5119 286.137 82.6036 286.661 83.439 287.486L88.1632 292.138L95.6279 284.761L90.9036 280.109C90.0675 279.285 89.5356 278.21 89.3927 277.054C89.2498 275.898 89.5042 274.729 90.1154 273.732C91.8864 270.81 93.2192 267.652 94.0725 264.355C94.3726 263.243 95.0377 262.261 95.964 261.561C96.8903 260.861 98.0258 260.482 99.1936 260.484H105.806V250.065H99.1936C98.0223 250.065 96.8841 249.682 95.9574 248.977C95.0306 248.272 94.3677 247.284 94.0725 246.168C93.2192 242.87 91.8864 239.712 90.1154 236.79C89.5042 235.793 89.2498 234.624 89.3927 233.468C89.5356 232.312 90.0675 231.237 90.9036 230.414L95.6279 225.761L88.1368 218.384L83.4125 223.037C82.5771 223.861 81.4854 224.386 80.3117 224.527C79.138 224.669 77.9499 224.419 76.9372 223.818C73.9707 222.072 70.7633 220.758 67.4146 219.916C66.2904 219.622 65.2962 218.971 64.5856 218.064C63.8751 217.157 63.4878 216.045 63.4839 214.899V208.387H52.9032V214.899C52.9036 216.053 52.5152 217.173 51.7991 218.086C51.0829 218.999 50.0795 219.651 48.9461 219.942C45.5973 220.784 42.3899 222.098 39.4235 223.844C38.4107 224.445 37.2226 224.695 36.0489 224.553C34.8752 224.412 33.7835 223.887 32.9481 223.063L28.2239 218.411L20.7328 225.787L25.457 230.44C26.2931 231.263 26.8251 232.338 26.9679 233.494C27.1108 234.65 26.8564 235.82 26.2453 236.816C24.4742 239.738 23.1414 242.896 22.2881 246.194C21.9892 247.301 21.3281 248.28 20.4071 248.98C19.4862 249.679 18.3567 250.061 17.1935 250.065H10.5806V260.484Z" fill="#50AAB2"/>
<path d="M58.1936 229.226C63.4252 229.226 68.5393 230.754 72.8893 233.616C77.2392 236.478 80.6296 240.546 82.6317 245.306C84.6337 250.066 85.1576 255.303 84.1369 260.356C83.1163 265.409 80.597 270.05 76.8977 273.693C73.1984 277.336 68.4851 279.817 63.354 280.822C58.2229 281.827 52.9044 281.311 48.071 279.34C43.2376 277.368 39.1064 274.03 36.1998 269.746C33.2933 265.462 31.7419 260.426 31.7419 255.274C31.7503 248.368 34.5399 241.748 39.4987 236.864C44.4575 231.981 51.1807 229.234 58.1936 229.226ZM58.1936 270.903C61.3325 270.903 64.401 269.987 67.011 268.269C69.621 266.552 71.6552 264.111 72.8564 261.255C74.0577 258.399 74.372 255.257 73.7596 252.225C73.1472 249.193 71.6356 246.409 69.416 244.223C67.1964 242.037 64.3685 240.549 61.2898 239.945C58.2112 239.342 55.0201 239.652 52.12 240.835C49.22 242.018 46.7413 244.021 44.9973 246.591C43.2534 249.161 42.3226 252.183 42.3226 255.274C42.3226 259.419 43.9947 263.395 46.9711 266.326C49.9475 269.257 53.9843 270.903 58.1936 270.903Z" fill="#50AAB2"/>
<path d="M452.75 179C451.083 179 449.583 178.417 448.25 177.25C447.083 175.917 446.5 174.417 446.5 172.75V10.25C446.5 8.41666 447.083 6.91666 448.25 5.75C449.583 4.58332 451.083 3.99999 452.75 3.99999H569.5C571.333 3.99999 572.833 4.58332 574 5.75C575.167 6.91666 575.75 8.41666 575.75 10.25V33.75C575.75 35.4167 575.167 36.9167 574 38.25C572.833 39.4167 571.333 40 569.5 40H489.75V73.75H564C565.833 73.75 567.333 74.4167 568.5 75.75C569.667 76.9167 570.25 78.4167 570.25 80.25V102C570.25 103.667 569.667 105.167 568.5 106.5C567.333 107.667 565.833 108.25 564 108.25H489.75V143H571.5C573.333 143 574.833 143.583 576 144.75C577.167 145.917 577.75 147.417 577.75 149.25V172.75C577.75 174.417 577.167 175.917 576 177.25C574.833 178.417 573.333 179 571.5 179H452.75ZM596.168 179C594.835 179 593.585 178.5 592.418 177.5C591.418 176.333 590.918 175.083 590.918 173.75C590.918 172.75 591.001 172 591.168 171.5L649.918 11C650.418 8.99999 651.501 7.33333 653.168 5.99999C654.835 4.66666 657.001 3.99999 659.668 3.99999H696.668C699.335 3.99999 701.501 4.66666 703.168 5.99999C704.835 7.33333 705.918 8.99999 706.418 11L764.918 171.5L765.418 173.75C765.418 175.083 764.835 176.333 763.668 177.5C762.668 178.5 761.418 179 759.918 179H729.168C725.168 179 722.501 177.25 721.168 173.75L711.418 148.25H644.668L635.168 173.75C633.835 177.25 631.085 179 626.918 179H596.168ZM701.418 112.25L678.168 46.25L654.918 112.25H701.418ZM847.688 181.5C831.854 181.5 818.271 179.167 806.938 174.5C795.604 169.833 787.021 163.75 781.188 156.25C775.521 148.583 772.521 140.25 772.188 131.25C772.188 129.917 772.688 128.75 773.688 127.75C774.854 126.583 776.188 126 777.688 126H809.188C811.188 126 812.771 126.417 813.938 127.25C815.271 127.917 816.604 129 817.938 130.5C820.104 134.833 823.604 138.417 828.438 141.25C833.271 144.083 839.688 145.5 847.688 145.5C857.188 145.5 864.438 144 869.438 141C874.438 138 876.938 133.917 876.938 128.75C876.938 125.083 875.604 122.083 872.938 119.75C870.438 117.417 866.438 115.333 860.938 113.5C855.438 111.667 847.271 109.583 836.438 107.25C816.438 103.083 801.438 97 791.438 89C781.604 80.8333 776.688 69.25 776.688 54.25C776.688 44.0833 779.521 35 785.188 27C790.854 19 798.938 12.75 809.438 8.24999C819.938 3.74999 832.188 1.49999 846.188 1.49999C860.688 1.49999 873.271 3.99999 883.938 9C894.604 14 902.688 20.3333 908.188 28C913.854 35.5 916.854 42.9167 917.188 50.25C917.188 51.75 916.688 53 915.688 54C914.688 55 913.438 55.5 911.937 55.5H878.938C876.938 55.5 875.271 55.1667 873.938 54.5C872.771 53.8333 871.688 52.75 870.688 51.25C869.688 47.4167 866.938 44.1667 862.438 41.5C858.104 38.8333 852.688 37.5 846.188 37.5C838.688 37.5 832.938 38.8333 828.938 41.5C824.938 44.1667 822.938 48.0833 822.938 53.25C822.938 56.75 824.021 59.6667 826.188 62C828.521 64.3333 832.188 66.5 837.188 68.5C842.354 70.3333 849.688 72.25 859.188 74.25C874.688 77.0833 887.021 80.6667 896.188 85C905.521 89.1667 912.354 94.6667 916.688 101.5C921.021 108.167 923.188 116.583 923.188 126.75C923.188 137.917 919.938 147.667 913.438 156C907.104 164.167 898.188 170.5 886.688 175C875.354 179.333 862.354 181.5 847.688 181.5ZM992.379 179C990.712 179 989.212 178.417 987.879 177.25C986.712 175.917 986.129 174.417 986.129 172.75V119L928.129 12C927.629 10.5 927.379 9.58332 927.379 9.24999C927.379 7.91666 927.879 6.74999 928.879 5.75C930.046 4.58332 931.379 3.99999 932.879 3.99999H964.129C967.462 3.99999 970.379 5.74999 972.879 9.24999L1008.63 73.75L1044.63 9.24999C1046.63 5.74999 1049.55 3.99999 1053.38 3.99999H1084.63C1086.13 3.99999 1087.38 4.58332 1088.38 5.75C1089.38 6.74999 1089.88 7.91666 1089.88 9.24999C1089.88 10.0833 1089.71 11 1089.38 12L1031.38 119V172.75C1031.38 174.583 1030.71 176.083 1029.38 177.25C1028.21 178.417 1026.71 179 1024.88 179H992.379ZM1163.69 179C1162.02 179 1160.52 178.417 1159.19 177.25C1158.02 175.917 1157.44 174.417 1157.44 172.75V10.25C1157.44 8.41666 1158.02 6.91666 1159.19 5.75C1160.52 4.58332 1162.02 3.99999 1163.69 3.99999H1228.69C1253.19 3.99999 1272.19 9.83332 1285.69 21.5C1299.19 33.1667 1306.27 50.0833 1306.94 72.25C1307.1 77.0833 1307.19 83.5 1307.19 91.5C1307.19 99.5 1307.1 105.833 1306.94 110.5C1306.1 133.667 1299.19 150.917 1286.19 162.25C1273.35 173.417 1254.6 179 1229.94 179H1163.69ZM1228.69 143C1239.69 143 1247.77 140.417 1252.94 135.25C1258.1 129.917 1260.85 121.5 1261.19 110C1261.52 105.167 1261.69 98.9167 1261.69 91.25C1261.69 83.5833 1261.52 77.4167 1261.19 72.75C1260.85 61.5833 1257.85 53.3333 1252.19 48C1246.69 42.6667 1238.44 40 1227.44 40H1202.44V143H1228.69ZM1407.89 181.5C1384.39 181.5 1365.89 175.75 1352.39 164.25C1338.89 152.75 1331.73 135.833 1330.89 113.5C1330.73 108.667 1330.64 101.5 1330.64 92C1330.64 82.3333 1330.73 75.0833 1330.89 70.25C1331.73 48.25 1338.98 31.3333 1352.64 19.5C1366.48 7.49999 1384.89 1.49999 1407.89 1.49999C1430.89 1.49999 1449.31 7.49999 1463.14 19.5C1476.98 31.3333 1484.23 48.25 1484.89 70.25C1485.23 79.9167 1485.39 87.1667 1485.39 92C1485.39 96.6667 1485.23 103.833 1484.89 113.5C1484.06 135.833 1476.89 152.75 1463.39 164.25C1449.89 175.75 1431.39 181.5 1407.89 181.5ZM1407.89 145.5C1417.06 145.5 1424.31 142.75 1429.64 137.25C1435.14 131.75 1438.06 123.333 1438.39 112C1438.73 102.333 1438.89 95.5 1438.89 91.5C1438.89 87.1667 1438.73 80.3333 1438.39 71C1438.06 59.6667 1435.14 51.25 1429.64 45.75C1424.14 40.25 1416.89 37.5 1407.89 37.5C1398.89 37.5 1391.64 40.25 1386.14 45.75C1380.81 51.25 1377.89 59.6667 1377.39 71C1377.23 75.6667 1377.14 82.5 1377.14 91.5C1377.14 100.333 1377.23 107.167 1377.39 112C1377.89 123.333 1380.81 131.75 1386.14 137.25C1391.48 142.75 1398.73 145.5 1407.89 145.5ZM1585.87 181.5C1562.37 181.5 1543.87 175.75 1530.37 164.25C1516.87 152.75 1509.7 135.833 1508.87 113.5C1508.7 108.667 1508.62 101.5 1508.62 92C1508.62 82.3333 1508.7 75.0833 1508.87 70.25C1509.7 48.25 1516.95 31.3333 1530.62 19.5C1544.45 7.49999 1562.87 1.49999 1585.87 1.49999C1608.87 1.49999 1627.29 7.49999 1641.12 19.5C1654.95 31.3333 1662.2 48.25 1662.87 70.25C1663.2 79.9167 1663.37 87.1667 1663.37 92C1663.37 96.6667 1663.2 103.833 1662.87 113.5C1662.04 135.833 1654.87 152.75 1641.37 164.25C1627.87 175.75 1609.37 181.5 1585.87 181.5ZM1585.87 145.5C1595.04 145.5 1602.29 142.75 1607.62 137.25C1613.12 131.75 1616.04 123.333 1616.37 112C1616.7 102.333 1616.87 95.5 1616.87 91.5C1616.87 87.1667 1616.7 80.3333 1616.37 71C1616.04 59.6667 1613.12 51.25 1607.62 45.75C1602.12 40.25 1594.87 37.5 1585.87 37.5C1576.87 37.5 1569.62 40.25 1564.12 45.75C1558.79 51.25 1555.87 59.6667 1555.37 71C1555.2 75.6667 1555.12 82.5 1555.12 91.5C1555.12 100.333 1555.2 107.167 1555.37 112C1555.87 123.333 1558.79 131.75 1564.12 137.25C1569.45 142.75 1576.7 145.5 1585.87 145.5ZM1698.6 179C1696.93 179 1695.43 178.417 1694.1 177.25C1692.93 175.917 1692.35 174.417 1692.35 172.75V10.25C1692.35 8.41666 1692.93 6.91666 1694.1 5.75C1695.43 4.58332 1696.93 3.99999 1698.6 3.99999H1766.6C1788.43 3.99999 1805.43 8.99999 1817.6 19C1829.93 28.8333 1836.1 42.8333 1836.1 61C1836.1 72.6667 1833.35 82.5833 1827.85 90.75C1822.35 98.9167 1814.77 105.167 1805.1 109.5L1839.35 171C1839.85 172 1840.1 172.917 1840.1 173.75C1840.1 175.083 1839.52 176.333 1838.35 177.5C1837.35 178.5 1836.18 179 1834.85 179H1801.6C1796.77 179 1793.35 176.75 1791.35 172.25L1762.85 117.25H1737.35V172.75C1737.35 174.583 1736.68 176.083 1735.35 177.25C1734.18 178.417 1732.68 179 1730.85 179H1698.6ZM1766.1 81.75C1773.77 81.75 1779.6 79.9167 1783.6 76.25C1787.6 72.4167 1789.6 67.1667 1789.6 60.5C1789.6 53.8333 1787.6 48.5833 1783.6 44.75C1779.77 40.75 1773.93 38.75 1766.1 38.75H1737.35V81.75H1766.1ZM1930.45 181.5C1914.62 181.5 1901.03 179.167 1889.7 174.5C1878.37 169.833 1869.78 163.75 1863.95 156.25C1858.28 148.583 1855.28 140.25 1854.95 131.25C1854.95 129.917 1855.45 128.75 1856.45 127.75C1857.62 126.583 1858.95 126 1860.45 126H1891.95C1893.95 126 1895.53 126.417 1896.7 127.25C1898.03 127.917 1899.37 129 1900.7 130.5C1902.87 134.833 1906.37 138.417 1911.2 141.25C1916.03 144.083 1922.45 145.5 1930.45 145.5C1939.95 145.5 1947.2 144 1952.2 141C1957.2 138 1959.7 133.917 1959.7 128.75C1959.7 125.083 1958.37 122.083 1955.7 119.75C1953.2 117.417 1949.2 115.333 1943.7 113.5C1938.2 111.667 1930.03 109.583 1919.2 107.25C1899.2 103.083 1884.2 97 1874.2 89C1864.37 80.8333 1859.45 69.25 1859.45 54.25C1859.45 44.0833 1862.28 35 1867.95 27C1873.62 19 1881.7 12.75 1892.2 8.24999C1902.7 3.74999 1914.95 1.49999 1928.95 1.49999C1943.45 1.49999 1956.03 3.99999 1966.7 9C1977.37 14 1985.45 20.3333 1990.95 28C1996.62 35.5 1999.62 42.9167 1999.95 50.25C1999.95 51.75 1999.45 53 1998.45 54C1997.45 55 1996.2 55.5 1994.7 55.5H1961.7C1959.7 55.5 1958.03 55.1667 1956.7 54.5C1955.53 53.8333 1954.45 52.75 1953.45 51.25C1952.45 47.4167 1949.7 44.1667 1945.2 41.5C1940.87 38.8333 1935.45 37.5 1928.95 37.5C1921.45 37.5 1915.7 38.8333 1911.7 41.5C1907.7 44.1667 1905.7 48.0833 1905.7 53.25C1905.7 56.75 1906.78 59.6667 1908.95 62C1911.28 64.3333 1914.95 66.5 1919.95 68.5C1925.12 70.3333 1932.45 72.25 1941.95 74.25C1957.45 77.0833 1969.78 80.6667 1978.95 85C1988.28 89.1667 1995.12 94.6667 1999.45 101.5C2003.78 108.167 2005.95 116.583 2005.95 126.75C2005.95 137.917 2002.7 147.667 1996.2 156C1989.87 164.167 1980.95 170.5 1969.45 175C1958.12 179.333 1945.12 181.5 1930.45 181.5Z" fill="#062A4D"/>
<path d="M449.16 323C448.627 323 448.173 322.813 447.8 322.44C447.427 322.067 447.24 321.613 447.24 321.08V269C447.24 268.413 447.4 267.933 447.72 267.56C448.093 267.187 448.573 267 449.16 267H468.68C484.36 267 492.36 274.253 492.68 288.76C492.787 291.853 492.84 293.933 492.84 295C492.84 296.013 492.787 298.067 492.68 301.16C492.467 308.627 490.467 314.147 486.68 317.72C482.893 321.24 477.027 323 469.08 323H449.16ZM468.68 313.8C473.16 313.8 476.387 312.813 478.36 310.84C480.333 308.813 481.373 305.507 481.48 300.92C481.587 297.72 481.64 295.72 481.64 294.92C481.64 294.067 481.587 292.093 481.48 289C481.373 284.627 480.253 281.4 478.12 279.32C476.04 277.24 472.76 276.2 468.28 276.2H458.36V313.8H468.68ZM541.81 323.8C534.557 323.8 528.903 321.96 524.85 318.28C520.797 314.6 518.663 309.133 518.45 301.88C518.397 300.333 518.37 298.067 518.37 295.08C518.37 292.04 518.397 289.747 518.45 288.2C518.663 281.107 520.85 275.667 525.01 271.88C529.17 268.093 534.77 266.2 541.81 266.2C548.85 266.2 554.45 268.093 558.61 271.88C562.823 275.667 565.037 281.107 565.25 288.2C565.357 291.293 565.41 293.587 565.41 295.08C565.41 296.52 565.357 298.787 565.25 301.88C564.983 309.133 562.823 314.6 558.77 318.28C554.717 321.96 549.063 323.8 541.81 323.8ZM541.81 314.6C545.383 314.6 548.237 313.533 550.37 311.4C552.503 309.213 553.65 305.907 553.81 301.48C553.917 298.28 553.97 296.12 553.97 295C553.97 293.773 553.917 291.613 553.81 288.52C553.65 284.093 552.503 280.813 550.37 278.68C548.237 276.493 545.383 275.4 541.81 275.4C538.29 275.4 535.463 276.493 533.33 278.68C531.197 280.813 530.05 284.093 529.89 288.52C529.837 290.067 529.81 292.227 529.81 295C529.81 297.72 529.837 299.88 529.89 301.48C530.05 305.907 531.17 309.213 533.25 311.4C535.383 313.533 538.237 314.6 541.81 314.6ZM614.235 323.8C606.982 323.8 601.328 321.96 597.275 318.28C593.222 314.6 591.088 309.133 590.875 301.88C590.822 300.333 590.795 298.067 590.795 295.08C590.795 292.04 590.822 289.747 590.875 288.2C591.088 281.107 593.275 275.667 597.435 271.88C601.595 268.093 607.195 266.2 614.235 266.2C621.275 266.2 626.875 268.093 631.035 271.88C635.248 275.667 637.462 281.107 637.675 288.2C637.782 291.293 637.835 293.587 637.835 295.08C637.835 296.52 637.782 298.787 637.675 301.88C637.408 309.133 635.248 314.6 631.195 318.28C627.142 321.96 621.488 323.8 614.235 323.8ZM614.235 314.6C617.808 314.6 620.662 313.533 622.795 311.4C624.928 309.213 626.075 305.907 626.235 301.48C626.342 298.28 626.395 296.12 626.395 295C626.395 293.773 626.342 291.613 626.235 288.52C626.075 284.093 624.928 280.813 622.795 278.68C620.662 276.493 617.808 275.4 614.235 275.4C610.715 275.4 607.888 276.493 605.755 278.68C603.622 280.813 602.475 284.093 602.315 288.52C602.262 290.067 602.235 292.227 602.235 295C602.235 297.72 602.262 299.88 602.315 301.48C602.475 305.907 603.595 309.213 605.675 311.4C607.808 313.533 610.662 314.6 614.235 314.6ZM667.06 323C666.527 323 666.073 322.813 665.7 322.44C665.327 322.067 665.14 321.613 665.14 321.08V269C665.14 268.413 665.3 267.933 665.62 267.56C665.993 267.187 666.473 267 667.06 267H687.78C694.287 267 699.38 268.52 703.06 271.56C706.793 274.6 708.66 278.92 708.66 284.52C708.66 288.413 707.7 291.693 705.78 294.36C703.913 296.973 701.3 298.867 697.94 300.04L709.62 320.44C709.78 320.76 709.86 321.053 709.86 321.32C709.86 321.8 709.673 322.2 709.3 322.52C708.98 322.84 708.607 323 708.18 323H700.9C700.047 323 699.38 322.813 698.9 322.44C698.473 322.067 698.073 321.533 697.7 320.84L687.38 301.88H676.26V321.08C676.26 321.613 676.073 322.067 675.7 322.44C675.38 322.813 674.927 323 674.34 323H667.06ZM687.54 292.84C690.74 292.84 693.14 292.12 694.74 290.68C696.393 289.24 697.22 287.16 697.22 284.44C697.22 281.72 696.393 279.613 694.74 278.12C693.14 276.627 690.74 275.88 687.54 275.88H676.26V292.84H687.54ZM772.769 323C772.236 323 771.783 322.813 771.409 322.44C771.036 322.067 770.849 321.613 770.849 321.08V268.92C770.849 268.333 771.036 267.88 771.409 267.56C771.783 267.187 772.236 267 772.769 267H780.289C780.876 267 781.329 267.187 781.649 267.56C782.023 267.88 782.209 268.333 782.209 268.92V321.08C782.209 321.613 782.023 322.067 781.649 322.44C781.329 322.813 780.876 323 780.289 323H772.769ZM813.476 323C812.942 323 812.489 322.813 812.116 322.44C811.742 322.067 811.556 321.613 811.556 321.08V269C811.556 268.413 811.716 267.933 812.036 267.56C812.409 267.187 812.889 267 813.476 267H819.636C820.276 267 820.756 267.133 821.076 267.4C821.396 267.613 821.689 267.907 821.956 268.28L844.996 304.12V269C844.996 268.413 845.156 267.933 845.476 267.56C845.849 267.187 846.329 267 846.916 267H853.636C854.222 267 854.702 267.187 855.076 267.56C855.449 267.933 855.636 268.413 855.636 269V321C855.636 321.587 855.449 322.067 855.076 322.44C854.702 322.813 854.249 323 853.716 323H847.476C846.569 323 845.796 322.573 845.156 321.72L822.196 286.68V321.08C822.196 321.667 822.009 322.147 821.636 322.52C821.262 322.84 820.782 323 820.196 323H813.476ZM904.358 323.8C899.611 323.8 895.531 323.08 892.118 321.64C888.705 320.2 886.118 318.307 884.358 315.96C882.598 313.613 881.665 311.08 881.558 308.36C881.558 307.88 881.718 307.48 882.038 307.16C882.358 306.84 882.758 306.68 883.238 306.68H890.358C890.998 306.68 891.478 306.813 891.798 307.08C892.171 307.293 892.518 307.667 892.838 308.2C893.371 310.013 894.598 311.533 896.518 312.76C898.438 313.987 901.051 314.6 904.358 314.6C908.145 314.6 910.998 313.987 912.918 312.76C914.838 311.48 915.798 309.72 915.798 307.48C915.798 305.987 915.291 304.76 914.278 303.8C913.318 302.84 911.851 302.013 909.878 301.32C907.958 300.627 905.078 299.773 901.238 298.76C894.945 297.267 890.331 295.293 887.398 292.84C884.518 290.333 883.078 286.787 883.078 282.2C883.078 279.107 883.905 276.36 885.558 273.96C887.265 271.56 889.691 269.667 892.838 268.28C896.038 266.893 899.745 266.2 903.958 266.2C908.331 266.2 912.118 266.973 915.318 268.52C918.518 270.067 920.945 272.013 922.598 274.36C924.305 276.653 925.211 278.947 925.318 281.24C925.318 281.72 925.158 282.12 924.838 282.44C924.518 282.76 924.118 282.92 923.638 282.92H916.198C915.078 282.92 914.305 282.413 913.878 281.4C913.558 279.693 912.491 278.28 910.678 277.16C908.865 275.987 906.625 275.4 903.958 275.4C900.971 275.4 898.625 275.96 896.918 277.08C895.211 278.2 894.358 279.827 894.358 281.96C894.358 283.453 894.785 284.68 895.638 285.64C896.491 286.6 897.825 287.453 899.638 288.2C901.505 288.947 904.171 289.773 907.638 290.68C912.331 291.747 916.065 292.947 918.838 294.28C921.665 295.613 923.745 297.293 925.078 299.32C926.411 301.347 927.078 303.933 927.078 307.08C927.078 310.493 926.118 313.48 924.198 316.04C922.331 318.547 919.665 320.467 916.198 321.8C912.785 323.133 908.838 323.8 904.358 323.8ZM966.661 323C966.128 323 965.675 322.813 965.301 322.44C964.928 322.067 964.741 321.613 964.741 321.08V276.84H949.941C949.408 276.84 948.955 276.653 948.581 276.28C948.208 275.907 948.021 275.453 948.021 274.92V269C948.021 268.413 948.181 267.933 948.501 267.56C948.875 267.187 949.355 267 949.941 267H990.741C991.328 267 991.808 267.187 992.181 267.56C992.555 267.933 992.741 268.413 992.741 269V274.92C992.741 275.453 992.555 275.907 992.181 276.28C991.808 276.653 991.328 276.84 990.741 276.84H976.021V321.08C976.021 321.613 975.835 322.067 975.461 322.44C975.088 322.813 974.608 323 974.021 323H966.661ZM1008.36 323C1007.93 323 1007.53 322.84 1007.16 322.52C1006.84 322.2 1006.68 321.8 1006.68 321.32L1006.84 320.6L1026.12 269C1026.49 267.667 1027.43 267 1028.92 267H1037.64C1039.03 267 1039.96 267.667 1040.44 269L1059.72 320.6C1059.77 320.76 1059.8 321 1059.8 321.32C1059.8 321.8 1059.64 322.2 1059.32 322.52C1059 322.84 1058.63 323 1058.2 323H1051.24C1050.55 323 1050.01 322.84 1049.64 322.52C1049.27 322.2 1049.03 321.853 1048.92 321.48L1045.16 311.72H1021.4L1017.64 321.48C1017.21 322.493 1016.44 323 1015.32 323H1008.36ZM1042.36 302.52L1033.24 277.8L1024.2 302.52H1042.36ZM1085.99 323C1085.45 323 1085 322.813 1084.63 322.44C1084.25 322.067 1084.07 321.613 1084.07 321.08V268.92C1084.07 268.333 1084.25 267.88 1084.63 267.56C1085 267.187 1085.45 267 1085.99 267H1093.43C1094.01 267 1094.47 267.187 1094.79 267.56C1095.16 267.88 1095.35 268.333 1095.35 268.92V313.48H1120.71C1121.29 313.48 1121.77 313.667 1122.15 314.04C1122.52 314.413 1122.71 314.893 1122.71 315.48V321.08C1122.71 321.667 1122.52 322.147 1122.15 322.52C1121.77 322.84 1121.29 323 1120.71 323H1085.99ZM1149.19 323C1148.66 323 1148.21 322.813 1147.83 322.44C1147.46 322.067 1147.27 321.613 1147.27 321.08V268.92C1147.27 268.333 1147.46 267.88 1147.83 267.56C1148.21 267.187 1148.66 267 1149.19 267H1156.63C1157.22 267 1157.67 267.187 1157.99 267.56C1158.37 267.88 1158.55 268.333 1158.55 268.92V313.48H1183.91C1184.5 313.48 1184.98 313.667 1185.35 314.04C1185.73 314.413 1185.91 314.893 1185.91 315.48V321.08C1185.91 321.667 1185.73 322.147 1185.35 322.52C1184.98 322.84 1184.5 323 1183.91 323H1149.19ZM1207.04 323C1206.61 323 1206.21 322.84 1205.84 322.52C1205.52 322.2 1205.36 321.8 1205.36 321.32L1205.52 320.6L1224.8 269C1225.17 267.667 1226.11 267 1227.6 267H1236.32C1237.71 267 1238.64 267.667 1239.12 269L1258.4 320.6C1258.45 320.76 1258.48 321 1258.48 321.32C1258.48 321.8 1258.32 322.2 1258 322.52C1257.68 322.84 1257.31 323 1256.88 323H1249.92C1249.23 323 1248.69 322.84 1248.32 322.52C1247.95 322.2 1247.71 321.853 1247.6 321.48L1243.84 311.72H1220.08L1216.32 321.48C1215.89 322.493 1215.12 323 1214 323H1207.04ZM1241.04 302.52L1231.92 277.8L1222.88 302.52H1241.04ZM1291.13 323C1290.6 323 1290.14 322.813 1289.77 322.44C1289.4 322.067 1289.21 321.613 1289.21 321.08V276.84H1274.41C1273.88 276.84 1273.42 276.653 1273.05 276.28C1272.68 275.907 1272.49 275.453 1272.49 274.92V269C1272.49 268.413 1272.65 267.933 1272.97 267.56C1273.34 267.187 1273.82 267 1274.41 267H1315.21C1315.8 267 1316.28 267.187 1316.65 267.56C1317.02 267.933 1317.21 268.413 1317.21 269V274.92C1317.21 275.453 1317.02 275.907 1316.65 276.28C1316.28 276.653 1315.8 276.84 1315.21 276.84H1300.49V321.08C1300.49 321.613 1300.3 322.067 1299.93 322.44C1299.56 322.813 1299.08 323 1298.49 323H1291.13ZM1344.05 323C1343.51 323 1343.06 322.813 1342.69 322.44C1342.31 322.067 1342.13 321.613 1342.13 321.08V268.92C1342.13 268.333 1342.31 267.88 1342.69 267.56C1343.06 267.187 1343.51 267 1344.05 267H1351.57C1352.15 267 1352.61 267.187 1352.93 267.56C1353.3 267.88 1353.49 268.333 1353.49 268.92V321.08C1353.49 321.613 1353.3 322.067 1352.93 322.44C1352.61 322.813 1352.15 323 1351.57 323H1344.05ZM1404.35 323.8C1397.1 323.8 1391.45 321.96 1387.39 318.28C1383.34 314.6 1381.21 309.133 1380.99 301.88C1380.94 300.333 1380.91 298.067 1380.91 295.08C1380.91 292.04 1380.94 289.747 1380.99 288.2C1381.21 281.107 1383.39 275.667 1387.55 271.88C1391.71 268.093 1397.31 266.2 1404.35 266.2C1411.39 266.2 1416.99 268.093 1421.15 271.88C1425.37 275.667 1427.58 281.107 1427.79 288.2C1427.9 291.293 1427.95 293.587 1427.95 295.08C1427.95 296.52 1427.9 298.787 1427.79 301.88C1427.53 309.133 1425.37 314.6 1421.31 318.28C1417.26 321.96 1411.61 323.8 1404.35 323.8ZM1404.35 314.6C1407.93 314.6 1410.78 313.533 1412.91 311.4C1415.05 309.213 1416.19 305.907 1416.35 301.48C1416.46 298.28 1416.51 296.12 1416.51 295C1416.51 293.773 1416.46 291.613 1416.35 288.52C1416.19 284.093 1415.05 280.813 1412.91 278.68C1410.78 276.493 1407.93 275.4 1404.35 275.4C1400.83 275.4 1398.01 276.493 1395.87 278.68C1393.74 280.813 1392.59 284.093 1392.43 288.52C1392.38 290.067 1392.35 292.227 1392.35 295C1392.35 297.72 1392.38 299.88 1392.43 301.48C1392.59 305.907 1393.71 309.213 1395.79 311.4C1397.93 313.533 1400.78 314.6 1404.35 314.6ZM1457.18 323C1456.65 323 1456.19 322.813 1455.82 322.44C1455.45 322.067 1455.26 321.613 1455.26 321.08V269C1455.26 268.413 1455.42 267.933 1455.74 267.56C1456.11 267.187 1456.59 267 1457.18 267H1463.34C1463.98 267 1464.46 267.133 1464.78 267.4C1465.1 267.613 1465.39 267.907 1465.66 268.28L1488.7 304.12V269C1488.7 268.413 1488.86 267.933 1489.18 267.56C1489.55 267.187 1490.03 267 1490.62 267H1497.34C1497.93 267 1498.41 267.187 1498.78 267.56C1499.15 267.933 1499.34 268.413 1499.34 269V321C1499.34 321.587 1499.15 322.067 1498.78 322.44C1498.41 322.813 1497.95 323 1497.42 323H1491.18C1490.27 323 1489.5 322.573 1488.86 321.72L1465.9 286.68V321.08C1465.9 321.667 1465.71 322.147 1465.34 322.52C1464.97 322.84 1464.49 323 1463.9 323H1457.18ZM1583.14 323.8C1578.4 323.8 1574.32 323.08 1570.9 321.64C1567.49 320.2 1564.9 318.307 1563.14 315.96C1561.38 313.613 1560.45 311.08 1560.34 308.36C1560.34 307.88 1560.5 307.48 1560.82 307.16C1561.14 306.84 1561.54 306.68 1562.02 306.68H1569.14C1569.78 306.68 1570.26 306.813 1570.58 307.08C1570.96 307.293 1571.3 307.667 1571.62 308.2C1572.16 310.013 1573.38 311.533 1575.3 312.76C1577.22 313.987 1579.84 314.6 1583.14 314.6C1586.93 314.6 1589.78 313.987 1591.7 312.76C1593.62 311.48 1594.58 309.72 1594.58 307.48C1594.58 305.987 1594.08 304.76 1593.06 303.8C1592.1 302.84 1590.64 302.013 1588.66 301.32C1586.74 300.627 1583.86 299.773 1580.02 298.76C1573.73 297.267 1569.12 295.293 1566.18 292.84C1563.3 290.333 1561.86 286.787 1561.86 282.2C1561.86 279.107 1562.69 276.36 1564.34 273.96C1566.05 271.56 1568.48 269.667 1571.62 268.28C1574.82 266.893 1578.53 266.2 1582.74 266.2C1587.12 266.2 1590.9 266.973 1594.1 268.52C1597.3 270.067 1599.73 272.013 1601.38 274.36C1603.09 276.653 1604 278.947 1604.1 281.24C1604.1 281.72 1603.94 282.12 1603.62 282.44C1603.3 282.76 1602.9 282.92 1602.42 282.92H1594.98C1593.86 282.92 1593.09 282.413 1592.66 281.4C1592.34 279.693 1591.28 278.28 1589.46 277.16C1587.65 275.987 1585.41 275.4 1582.74 275.4C1579.76 275.4 1577.41 275.96 1575.7 277.08C1574 278.2 1573.14 279.827 1573.14 281.96C1573.14 283.453 1573.57 284.68 1574.42 285.64C1575.28 286.6 1576.61 287.453 1578.42 288.2C1580.29 288.947 1582.96 289.773 1586.42 290.68C1591.12 291.747 1594.85 292.947 1597.62 294.28C1600.45 295.613 1602.53 297.293 1603.86 299.32C1605.2 301.347 1605.86 303.933 1605.86 307.08C1605.86 310.493 1604.9 313.48 1602.98 316.04C1601.12 318.547 1598.45 320.467 1594.98 321.8C1591.57 323.133 1587.62 323.8 1583.14 323.8ZM1633.75 323C1633.22 323 1632.76 322.813 1632.39 322.44C1632.02 322.067 1631.83 321.613 1631.83 321.08V269C1631.83 268.413 1631.99 267.933 1632.31 267.56C1632.68 267.187 1633.16 267 1633.75 267H1668.95C1669.54 267 1670.02 267.187 1670.39 267.56C1670.76 267.933 1670.95 268.413 1670.95 269V274.28C1670.95 274.867 1670.76 275.347 1670.39 275.72C1670.02 276.04 1669.54 276.2 1668.95 276.2H1642.63V290.36H1667.19C1667.78 290.36 1668.26 290.547 1668.63 290.92C1669 291.24 1669.19 291.693 1669.19 292.28V297.24C1669.19 297.827 1669 298.307 1668.63 298.68C1668.26 299 1667.78 299.16 1667.19 299.16H1642.63V313.8H1669.59C1670.18 313.8 1670.66 313.987 1671.03 314.36C1671.4 314.733 1671.59 315.213 1671.59 315.8V321.08C1671.59 321.667 1671.4 322.147 1671.03 322.52C1670.66 322.84 1670.18 323 1669.59 323H1633.75ZM1700.32 323C1699.78 323 1699.33 322.813 1698.96 322.44C1698.58 322.067 1698.4 321.613 1698.4 321.08V269C1698.4 268.413 1698.56 267.933 1698.88 267.56C1699.25 267.187 1699.73 267 1700.32 267H1721.04C1727.54 267 1732.64 268.52 1736.32 271.56C1740.05 274.6 1741.92 278.92 1741.92 284.52C1741.92 288.413 1740.96 291.693 1739.04 294.36C1737.17 296.973 1734.56 298.867 1731.2 300.04L1742.88 320.44C1743.04 320.76 1743.12 321.053 1743.12 321.32C1743.12 321.8 1742.93 322.2 1742.56 322.52C1742.24 322.84 1741.86 323 1741.44 323H1734.16C1733.3 323 1732.64 322.813 1732.16 322.44C1731.73 322.067 1731.33 321.533 1730.96 320.84L1720.64 301.88H1709.52V321.08C1709.52 321.613 1709.33 322.067 1708.96 322.44C1708.64 322.813 1708.18 323 1707.6 323H1700.32ZM1720.8 292.84C1724 292.84 1726.4 292.12 1728 290.68C1729.65 289.24 1730.48 287.16 1730.48 284.44C1730.48 281.72 1729.65 279.613 1728 278.12C1726.4 276.627 1724 275.88 1720.8 275.88H1709.52V292.84H1720.8ZM1783.55 323C1782 323 1780.99 322.253 1780.51 320.76L1763.39 269.4L1763.23 268.68C1763.23 268.2 1763.39 267.8 1763.71 267.48C1764.03 267.16 1764.43 267 1764.91 267H1771.95C1772.64 267 1773.17 267.187 1773.55 267.56C1773.97 267.88 1774.27 268.28 1774.43 268.76L1787.95 309.96L1801.47 268.76C1801.57 268.333 1801.84 267.933 1802.27 267.56C1802.69 267.187 1803.25 267 1803.95 267H1810.99C1811.41 267 1811.79 267.16 1812.11 267.48C1812.48 267.8 1812.67 268.2 1812.67 268.68L1812.51 269.4L1795.39 320.76C1794.91 322.253 1793.89 323 1792.35 323H1783.55ZM1839.85 323C1839.32 323 1838.87 322.813 1838.49 322.44C1838.12 322.067 1837.93 321.613 1837.93 321.08V268.92C1837.93 268.333 1838.12 267.88 1838.49 267.56C1838.87 267.187 1839.32 267 1839.85 267H1847.37C1847.96 267 1848.41 267.187 1848.73 267.56C1849.11 267.88 1849.29 268.333 1849.29 268.92V321.08C1849.29 321.613 1849.11 322.067 1848.73 322.44C1848.41 322.813 1847.96 323 1847.37 323H1839.85ZM1900.24 323.8C1892.88 323.8 1887.17 321.907 1883.12 318.12C1879.12 314.333 1876.99 309 1876.72 302.12C1876.67 300.68 1876.64 298.333 1876.64 295.08C1876.64 291.773 1876.67 289.373 1876.72 287.88C1876.99 281.053 1879.15 275.747 1883.2 271.96C1887.31 268.12 1892.99 266.2 1900.24 266.2C1904.99 266.2 1909.12 267.027 1912.64 268.68C1916.16 270.28 1918.88 272.493 1920.8 275.32C1922.72 278.093 1923.73 281.24 1923.84 284.76V284.92C1923.84 285.347 1923.65 285.72 1923.28 286.04C1922.96 286.307 1922.59 286.44 1922.16 286.44H1914.56C1913.92 286.44 1913.44 286.307 1913.12 286.04C1912.8 285.773 1912.53 285.267 1912.32 284.52C1911.47 281.16 1910.05 278.813 1908.08 277.48C1906.11 276.093 1903.47 275.4 1900.16 275.4C1892.48 275.4 1888.48 279.693 1888.16 288.28C1888.11 289.72 1888.08 291.933 1888.08 294.92C1888.08 297.907 1888.11 300.173 1888.16 301.72C1888.48 310.307 1892.48 314.6 1900.16 314.6C1903.47 314.6 1906.11 313.907 1908.08 312.52C1910.11 311.133 1911.52 308.787 1912.32 305.48C1912.48 304.733 1912.72 304.227 1913.04 303.96C1913.41 303.693 1913.92 303.56 1914.56 303.56H1922.16C1922.64 303.56 1923.04 303.72 1923.36 304.04C1923.73 304.36 1923.89 304.76 1923.84 305.24C1923.73 308.76 1922.72 311.933 1920.8 314.76C1918.88 317.533 1916.16 319.747 1912.64 321.4C1909.12 323 1904.99 323.8 1900.24 323.8ZM1952.05 323C1951.51 323 1951.06 322.813 1950.69 322.44C1950.31 322.067 1950.13 321.613 1950.13 321.08V269C1950.13 268.413 1950.29 267.933 1950.61 267.56C1950.98 267.187 1951.46 267 1952.05 267H1987.25C1987.83 267 1988.31 267.187 1988.69 267.56C1989.06 267.933 1989.25 268.413 1989.25 269V274.28C1989.25 274.867 1989.06 275.347 1988.69 275.72C1988.31 276.04 1987.83 276.2 1987.25 276.2H1960.93V290.36H1985.49C1986.07 290.36 1986.55 290.547 1986.93 290.92C1987.3 291.24 1987.49 291.693 1987.49 292.28V297.24C1987.49 297.827 1987.3 298.307 1986.93 298.68C1986.55 299 1986.07 299.16 1985.49 299.16H1960.93V313.8H1987.89C1988.47 313.8 1988.95 313.987 1989.33 314.36C1989.7 314.733 1989.89 315.213 1989.89 315.8V321.08C1989.89 321.667 1989.7 322.147 1989.33 322.52C1988.95 322.84 1988.47 323 1987.89 323H1952.05Z" fill="#062A4D" fill-opacity="0.55"/>
</svg>
